<?xml version="1.0" standalone="no"?>
<!DOCTYPE svg PUBLIC "-//W3C//DTD SVG 20010904//EN"
 "http://www.w3.org/TR/2001/REC-SVG-20010904/DTD/svg10.dtd">
<svg version="1.0" xmlns="http://www.w3.org/2000/svg"
 width="512.000000pt" height="512.000000pt" viewBox="0 0 512.000000 512.000000"
 preserveAspectRatio="xMidYMid meet">

<g transform="translate(0.000000,512.000000) scale(0.100000,-0.100000)"
fill="#FF7300A7" stroke="none">
<path d="M25 5095 l-25 -24 0 -2511 0 -2511 25 -24 24 -25 1791 0 1791 0 24
25 25 24 0 413 0 413 438 -438 c379 -378 441 -437 467 -437 25 0 66 37 282
253 234 233 253 255 253 287 0 33 -42 76 -720 748 l-720 714 0 1056 0 1057
-503 502 -502 503 -1313 0 -1313 0 -24 -25z m2525 -581 c0 -456 1 -472 39
-501 12 -9 130 -12 474 -13 l457 0 0 -917 0 -918 -433 433 c-237 237 -435 432
-439 432 -3 0 -183 74 -399 165 -216 91 -403 165 -416 165 -31 0 -73 -42 -73
-73 0 -13 20 -72 45 -131 25 -60 45 -110 45 -112 0 -2 -117 -4 -260 -4 l-261
0 -24 -25 c-33 -32 -33 -78 0 -110 l24 -25 295 0 294 0 31 -74 c17 -41 31 -77
31 -80 0 -3 -146 -6 -325 -6 l-326 0 -24 -25 c-30 -29 -32 -74 -6 -106 l19
-24 367 -5 367 -5 20 -50 c16 -41 54 -85 206 -238 l187 -187 -568 0 -568 0
-24 -25 c-33 -32 -33 -78 0 -110 l24 -25 648 0 648 0 80 -80 80 -80 -728 0
-728 0 -24 -25 c-16 -15 -25 -36 -25 -55 0 -19 9 -40 25 -55 l24 -25 808 0
808 0 287 -287 288 -288 0 -432 0 -433 -1680 0 -1680 0 0 2400 0 2400 1195 0
1195 0 0 -446z m510 -9 l345 -345 -348 0 -347 0 0 345 c0 190 1 345 3 345 1 0
157 -155 347 -345z m-821 -1479 c112 -48 211 -90 219 -95 12 -7 -15 -39 -123
-150 -76 -78 -142 -138 -145 -134 -4 5 -14 26 -23 48 -13 34 -158 385 -174
423 -6 15 -19 20 246 -92z m1331 -1135 l945 -939 -165 -168 c-91 -93 -169
-171 -174 -173 -5 -2 -433 421 -952 940 l-944 944 167 167 c92 93 170 168 173
168 3 0 430 -423 950 -939z m1210 -1206 l144 -145 -49 -52 c-134 -143 -281
-288 -290 -288 -6 0 -75 65 -155 145 l-145 145 170 170 c93 94 172 170 175
170 3 0 70 -65 150 -145z"/>
<path d="M505 4055 l-25 -24 0 -271 0 -271 25 -24 24 -25 271 0 271 0 24 25
25 24 0 271 0 271 -25 24 -24 25 -271 0 -271 0 -24 -25z m455 -295 l0 -160
-160 0 -160 0 0 160 0 160 160 0 160 0 0 -160z"/>
<path d="M1305 3975 c-16 -15 -25 -36 -25 -55 0 -19 9 -40 25 -55 l24 -25 471
0 471 0 24 25 c33 32 33 78 0 110 l-24 25 -471 0 -471 0 -24 -25z"/>
<path d="M1305 3655 c-16 -15 -25 -36 -25 -55 0 -19 9 -40 25 -55 l24 -25 831
0 831 0 24 25 c16 15 25 36 25 55 0 19 -9 40 -25 55 l-24 25 -831 0 -831 0
-24 -25z"/>
<path d="M505 3095 l-25 -24 0 -271 0 -271 25 -24 24 -25 271 0 271 0 24 25
25 24 0 271 0 271 -25 24 -24 25 -271 0 -271 0 -24 -25z m455 -295 l0 -160
-160 0 -160 0 0 160 0 160 160 0 160 0 0 -160z"/>
<path d="M505 2135 l-25 -24 0 -271 0 -271 25 -24 24 -25 271 0 271 0 24 25
25 24 0 271 0 271 -25 24 -24 25 -271 0 -271 0 -24 -25z m455 -295 l0 -160
-160 0 -160 0 0 160 0 160 160 0 160 0 0 -160z"/>
<path d="M505 1175 l-25 -24 0 -271 0 -271 25 -24 24 -25 271 0 271 0 24 25
25 24 0 271 0 271 -25 24 -24 25 -271 0 -271 0 -24 -25z m455 -295 l0 -160
-160 0 -160 0 0 160 0 160 160 0 160 0 0 -160z"/>
<path d="M1305 1095 c-16 -15 -25 -36 -25 -55 0 -19 9 -40 25 -55 l24 -25 831
0 831 0 24 25 c16 15 25 36 25 55 0 19 -9 40 -25 55 l-24 25 -831 0 -831 0
-24 -25z"/>
<path d="M1305 775 c-16 -15 -25 -36 -25 -55 0 -19 9 -40 25 -55 l24 -25 831
0 831 0 24 25 c16 15 25 36 25 55 0 19 -9 40 -25 55 l-24 25 -831 0 -831 0
-24 -25z"/>
</g>
</svg>
