<?xml version="1.0" standalone="no"?>
<!DOCTYPE svg PUBLIC "-//W3C//DTD SVG 20010904//EN"
 "http://www.w3.org/TR/2001/REC-SVG-20010904/DTD/svg10.dtd">
<svg version="1.0" xmlns="http://www.w3.org/2000/svg"
 width="225.000000pt" height="225.000000pt" viewBox="0 0 225.000000 225.000000"
 preserveAspectRatio="xMidYMid meet">

<g transform="translate(0.000000,225.000000) scale(0.100000,-0.100000)"
fill="#FF7300A7" stroke="none">
<path d="M765 2004 c-14 -15 -16 -58 -14 -396 l2 -379 -144 -100 c-79 -54
-151 -108 -159 -120 -8 -12 -33 -76 -56 -143 -35 -102 -44 -120 -60 -118 -101
19 -102 19 -165 -49 -54 -57 -59 -66 -59 -108 0 -45 2 -48 92 -134 239 -228
265 -245 325 -214 39 21 111 100 119 132 6 25 3 55 -10 86 -5 12 1 20 24 29
17 7 59 44 94 81 l64 69 309 0 309 0 22 -52 c47 -113 165 -239 278 -300 l42
-22 66 43 c92 60 186 164 230 253 51 104 67 179 64 289 l-3 93 -93 27 c-51 14
-127 43 -168 64 l-74 38 0 421 c0 405 -1 422 -20 454 -12 19 -38 41 -63 52
-39 18 -70 20 -489 20 -399 0 -448 -2 -463 -16z m822 -196 l143 -143 0 -299 1
-299 -32 -19 c-43 -26 -163 -73 -227 -88 -31 -7 -56 -19 -62 -30 -12 -22 -12
-118 -1 -177 l8 -43 -241 0 -241 0 47 27 c83 46 99 125 36 178 -39 33 -90 33
-143 0 -22 -13 -43 -25 -47 -25 -5 0 -8 239 -8 530 l0 530 313 0 312 0 142
-142z m116 120 c21 -19 26 -35 30 -95 3 -40 3 -73 -1 -73 -4 0 -50 43 -102 95
l-95 95 72 0 c61 0 76 -4 96 -22z m-949 -839 c-2 -48 -5 -54 -62 -113 -66 -66
-83 -97 -75 -139 7 -37 57 -77 95 -77 18 0 69 22 127 55 100 57 135 66 145 40
10 -27 -3 -39 -97 -92 -66 -37 -113 -74 -166 -128 -40 -42 -90 -84 -110 -95
l-37 -19 -93 86 c-84 78 -91 87 -77 102 9 10 35 73 58 141 l43 124 120 83 c66
45 122 83 125 83 3 0 4 -23 4 -51z m1104 -123 c49 -24 119 -51 154 -61 l65
-17 -3 -62 c-9 -168 -80 -309 -209 -415 -82 -67 -87 -68 -145 -31 -142 91
-249 289 -250 462 l0 47 43 11 c62 16 166 57 212 84 22 13 41 25 42 25 1 1 42
-19 91 -43z m-1102 -73 c-3 -37 -9 -50 -25 -57 -16 -7 -26 -5 -39 7 -15 16
-14 20 23 57 21 22 40 40 42 40 1 0 1 -21 -1 -47z m-321 -339 c80 -75 145
-143 145 -152 0 -19 -78 -102 -96 -102 -15 0 -300 264 -308 285 -7 20 70 105
96 105 11 0 82 -59 163 -136z"/>
<path d="M913 1844 c-3 -9 -2 -24 4 -33 8 -13 34 -16 149 -19 154 -3 179 0
188 24 15 38 -10 44 -176 44 -138 0 -159 -2 -165 -16z"/>
<path d="M920 1735 c-6 -8 -10 -22 -8 -32 3 -16 18 -18 164 -21 132 -2 163 0
173 12 9 11 10 20 1 35 -10 20 -19 21 -164 21 -122 0 -156 -3 -166 -15z"/>
<path d="M919 1344 c-9 -11 -10 -20 -2 -32 9 -15 43 -17 333 -17 290 0 324 2
333 17 8 12 7 21 -2 32 -12 14 -53 16 -331 16 -278 0 -319 -2 -331 -16z"/>
<path d="M922 1234 c-8 -6 -12 -19 -10 -30 3 -18 15 -19 338 -19 318 0 335 1
338 19 2 10 -1 23 -6 28 -15 15 -640 17 -660 2z"/>
<path d="M913 1114 c-3 -9 -2 -24 4 -33 9 -14 47 -16 333 -16 286 0 324 2 333
16 6 9 7 24 4 33 -6 14 -40 16 -337 16 -297 0 -331 -2 -337 -16z"/>
<path d="M1848 718 l-96 -102 -47 52 c-58 64 -81 78 -101 61 -8 -6 -14 -19
-14 -28 0 -18 149 -171 167 -171 13 0 233 235 233 249 0 11 -28 41 -38 41 -4
0 -51 -46 -104 -102z"/>
</g>
</svg>
