<?xml version="1.0" standalone="no"?>
<!DOCTYPE svg PUBLIC "-//W3C//DTD SVG 20010904//EN"
 "http://www.w3.org/TR/2001/REC-SVG-20010904/DTD/svg10.dtd">
<svg version="1.0" xmlns="http://www.w3.org/2000/svg"
 width="512.000000pt" height="512.000000pt" viewBox="0 0 512.000000 512.000000"
 preserveAspectRatio="xMidYMid meet">

<g transform="translate(0.000000,512.000000) scale(0.100000,-0.100000)"
fill="#FF7300A7" stroke="none">
<path d="M1483 4900 c-55 -11 -91 -31 -130 -72 -67 -69 -68 -75 -71 -470 l-3
-357 -307 -3 c-294 -3 -309 -4 -352 -25 -72 -36 -117 -79 -150 -146 l-30 -62
2 -1375 3 -1375 23 -45 c32 -61 77 -106 137 -138 l50 -27 668 -3 c617 -2 668
-4 663 -19 -4 -9 -53 -97 -109 -194 l-102 -178 -98 -1 c-54 0 -108 -5 -120
-11 -62 -32 -75 -99 -28 -151 l29 -33 1002 0 1002 0 29 33 c47 52 34 119 -28
151 -12 6 -66 11 -120 11 l-98 1 -102 177 c-56 98 -105 186 -109 195 -5 15 45
17 663 19 l668 3 50 27 c65 34 108 80 139 148 l26 55 0 1366 0 1366 -31 61
c-33 66 -76 108 -149 144 -43 22 -59 23 -307 26 l-263 3 0 362 c0 404 -1 407
-71 474 -77 73 13 68 -1224 70 -610 0 -1129 -3 -1152 -7z m2245 -202 c9 -9 12
-364 12 -1535 l0 -1523 -1130 0 -1130 0 0 1523 c0 1171 3 1526 12 1535 17 17
2219 17 2236 0z m-2448 -1983 l0 -1095 -325 0 -325 0 0 1054 0 1054 26 31 c14
17 40 35 57 40 18 5 152 10 300 10 l267 1 0 -1095z m3122 1085 c20 -6 48 -24
62 -41 l26 -31 0 -1054 0 -1054 -280 0 -280 0 0 1088 c0 599 3 1092 7 1095 10
11 425 8 465 -3z m88 -2545 c0 -138 -3 -182 -15 -205 -33 -64 108 -60 -1915
-60 -2023 0 -1882 -4 -1915 60 -12 23 -15 67 -15 205 l0 175 1930 0 1930 0 0
-175z m-1483 -642 c59 -103 110 -190 111 -195 2 -4 -249 -8 -558 -8 -309 0
-560 4 -558 8 2 5 52 92 111 195 l109 187 338 0 338 0 109 -187z"/>
<path d="M3085 4506 c-16 -8 -57 -37 -89 -65 l-59 -50 -26 18 c-41 28 -61 32
-97 21 -69 -23 -86 -106 -33 -159 74 -75 115 -101 156 -101 36 0 51 9 150 94
115 98 123 108 123 157 0 43 -17 69 -55 85 -40 16 -33 16 -70 0z"/>
<path d="M1866 4425 c-56 -20 -86 -45 -110 -91 -19 -35 -21 -57 -21 -194 0
-184 11 -216 90 -265 46 -29 54 -30 180 -33 151 -4 200 5 251 50 64 56 69 75
69 248 0 127 -3 161 -17 186 -24 44 -81 91 -125 103 -56 16 -270 13 -317 -4z
m264 -285 l0 -100 -105 0 -105 0 0 100 0 100 105 0 105 0 0 -100z"/>
<path d="M2593 4026 c-86 -38 -66 -164 28 -181 19 -3 208 -5 421 -3 l388 3 27
27 c38 39 38 97 0 136 l-27 27 -403 2 c-326 2 -408 0 -434 -11z"/>
<path d="M3010 3449 l-70 -60 -34 20 c-18 12 -49 21 -69 21 -47 0 -87 -45 -87
-98 0 -31 8 -43 63 -94 74 -69 120 -87 163 -65 16 8 75 56 132 106 101 91 102
92 102 137 0 59 -34 94 -91 94 -33 0 -49 -9 -109 -61z"/>
<path d="M1835 3412 c-43 -27 -83 -76 -96 -121 -7 -22 -10 -92 -8 -177 4 -126
6 -143 28 -177 13 -21 42 -50 64 -65 38 -26 48 -27 181 -31 192 -4 247 14 297
102 22 39 24 52 24 192 0 171 -10 205 -78 259 l-39 31 -171 3 c-154 2 -175 1
-202 -16z m295 -277 l0 -106 -102 3 -103 3 -3 103 -3 102 106 0 105 0 0 -105z"/>
<path d="M2565 3005 c-34 -33 -34 -93 -1 -132 l24 -28 415 -3 415 -3 30 26
c17 14 33 39 37 55 7 33 -15 84 -44 100 -13 6 -170 10 -436 10 l-416 0 -24
-25z"/>
<path d="M3075 2498 c-11 -6 -45 -33 -76 -60 -30 -26 -59 -48 -63 -48 -4 0
-19 9 -33 20 -61 48 -153 2 -153 -76 0 -32 7 -45 50 -86 94 -91 143 -107 196
-66 47 36 188 161 201 177 7 9 13 35 13 58 0 34 -5 46 -31 67 -32 28 -71 33
-104 14z"/>
<path d="M1845 2413 c-93 -49 -115 -98 -115 -268 0 -149 9 -192 51 -240 50
-57 94 -67 266 -63 144 3 151 4 191 31 66 43 85 91 90 228 7 187 -22 269 -112
310 -56 25 -324 27 -371 2z m285 -278 l0 -106 -102 3 -103 3 -3 89 c-2 49 -1
95 2 103 4 10 31 13 106 13 l100 0 0 -105z"/>
<path d="M2571 2004 c-26 -21 -31 -33 -31 -69 0 -36 5 -48 31 -69 l31 -26 404
0 c445 0 449 1 474 59 15 38 7 75 -25 107 l-24 24 -415 0 -414 0 -31 -26z"/>
<path d="M2524 1296 c-102 -45 -74 -186 36 -186 33 0 48 6 71 29 51 52 33 128
-37 157 -39 16 -32 16 -70 0z"/>
</g>
</svg>
